<svg xmlns="http://www.w3.org/2000/svg" viewBox="0 0 145 33"><defs><style>.a{fill:#d84735;}.b{fill:#0072c6;}.c{fill:#fff;}.c,.d,.e,.h,.i{opacity:0.2;}.d,.f{fill:#b71c1c;}.e{fill:#0d47a1;}.g,.i{fill:#01579b;}.j{fill:#616161;}</style></defs><title>AppBridge_ Logo</title><polygon class="a" points="20.786 0.941 25.775 5.93 25.775 9.256 22.449 9.256 17.461 4.267 20.786 0.941"/><rect class="b" x="15.109" y="8.163" width="4.703" height="18.813" transform="translate(-7.31 17.493) rotate(-45)"/><polygon class="b" points="12.472 19.233 5.82 25.884 12.472 25.884 15.798 22.559 12.472 19.233"/><polygon class="a" points="30.764 17.57 22.449 25.884 29.101 25.884 34.09 20.896 30.764 17.57"/><polygon class="a" points="29.101 9.256 34.09 14.244 34.09 20.896 25.775 12.581 29.101 9.256"/><polygon class="a" points="22.449 9.256 19.124 12.581 22.449 15.907 29.097 9.26 22.449 9.256"/><polygon class="b" points="5.82 25.884 0.832 20.896 0.832 14.244 9.146 22.559 5.82 25.884"/><polygon class="b" points="5.82 9.256 0.832 14.244 4.158 17.57 12.472 9.256 5.82 9.256"/><polygon class="a" points="14.135 0.941 8.315 6.761 14.966 6.761 20.786 0.941 14.135 0.941"/><polygon class="c" points="14.135 1.203 20.525 1.203 20.786 0.941 14.135 0.941 8.315 6.761 8.576 6.761 14.135 1.203"/><polygon class="c" points="22.449 9.517 28.835 9.521 29.097 9.26 22.449 9.256 19.124 12.581 19.254 12.712 22.449 9.517"/><polygon class="c" points="5.82 9.517 12.21 9.517 12.472 9.256 5.82 9.256 0.832 14.244 0.963 14.375 5.82 9.517"/><polygon class="d" points="29.101 25.623 22.711 25.623 22.449 25.884 29.101 25.884 34.09 20.896 33.959 20.765 29.101 25.623"/><polygon class="e" points="12.472 25.623 6.082 25.623 5.82 25.884 12.472 25.884 15.798 22.559 15.667 22.428 12.472 25.623"/><polygon class="f" points="20.786 0.941 25.775 5.93 25.775 9.256 22.449 9.256 17.461 4.267 20.786 0.941"/><rect class="g" x="15.109" y="8.163" width="4.703" height="18.813" transform="translate(-7.31 17.493) rotate(-45)"/><polygon class="f" points="29.101 9.256 34.09 14.244 34.09 20.896 25.775 12.581 29.101 9.256"/><polygon class="g" points="5.82 25.884 0.832 20.896 0.832 14.244 9.146 22.559 5.82 25.884"/><polygon class="h" points="20.786 0.941 20.786 0.941 18.292 5.098 17.461 4.267 20.786 0.941"/><polygon class="h" points="29.101 9.256 29.101 9.256 26.607 13.413 25.775 12.581 29.101 9.256"/><polygon class="d" points="30.764 17.57 29.932 18.401 34.09 20.896 30.764 17.57"/><polygon class="h" points="24.944 21.727 25.775 22.559 22.449 25.884 22.449 25.884 24.944 21.727"/><polygon class="h" points="12.472 9.256 12.472 9.256 9.978 13.413 9.146 12.581 12.472 9.256"/><polygon class="i" points="4.989 16.739 0.832 14.244 4.158 17.57 4.989 16.739"/><polygon class="h" points="5.82 25.884 5.82 25.884 8.315 21.727 9.146 22.559 5.82 25.884"/><path class="j" d="M106.115,20.51c0-3.516,2.555-6.117,5.461-6.117a4.6,4.6,0,0,1,3.914,1.969h0.094l-0.094-1.594v-5.3l2.156,1.29V26.252h-2.062V24.658h-0.094a4.6,4.6,0,0,1-3.914,1.969C108.669,26.627,106.115,24.025,106.115,20.51Zm9.469,0c0-2.625-1.734-4.148-3.656-4.148s-3.656,1.57-3.656,4.148,1.734,4.148,3.656,4.148S115.583,23.135,115.583,20.51Z"/><path class="j" d="M93.778,26.627V15.143h2.062v1.875h0.094a3.782,3.782,0,0,1,3.328-2.156,5.217,5.217,0,0,1,.8.026v2.18s-0.68-.073-1.148-0.073a3.125,3.125,0,0,0-2.976,3.351v6.281H93.778Z"/><path class="j" d="M101.449,11.861a1.523,1.523,0,1,1,1.523,1.523A1.52,1.52,0,0,1,101.449,11.861Zm0.445,14.766V15.143h2.156V26.627h-2.156Z"/><path class="j" d="M56.157,25.122H56.063l0.094,1.594v5.062L54,30.422V15.232h2.062v1.594h0.094a4.6,4.6,0,0,1,3.914-1.969c2.906,0,5.461,2.6,5.461,6.117s-2.555,6.117-5.461,6.117A4.6,4.6,0,0,1,56.157,25.122Zm7.218-4.148c0-2.578-1.734-4.148-3.656-4.148s-3.656,1.523-3.656,4.148,1.734,4.148,3.656,4.148S63.375,23.552,63.375,20.974Z"/><path class="j" d="M132.919,20.51c0-3.258,2.25-6.117,5.625-6.117,3.422,0,5.625,2.414,5.625,6.117,0,0.164-.023.4-0.023,0.4h-9.07a3.687,3.687,0,0,0,3.656,3.75,3.435,3.435,0,0,0,3.325-1.969l2.113-.007a5.361,5.361,0,0,1-5.39,3.945A5.769,5.769,0,0,1,132.919,20.51Zm5.578-4.148a3.382,3.382,0,0,0-3.281,2.765h6.656A3.109,3.109,0,0,0,138.5,16.361Z"/><path class="j" d="M119.724,27.9l2.144-.015a3.382,3.382,0,0,0,3.211,2.2,3.609,3.609,0,0,0,3.82-3.961v-1.1H128.8A4.659,4.659,0,0,1,124.891,27c-2.93,0-5.461-2.6-5.461-6.117s2.531-6.117,5.461-6.117a4.659,4.659,0,0,1,3.914,1.969H128.9V15.138h2.062v10.9c0,4.172-2.859,6.023-5.883,6.023A5.6,5.6,0,0,1,119.724,27.9ZM128.9,20.88c0-2.625-1.734-4.148-3.656-4.148s-3.656,1.57-3.656,4.148,1.734,4.148,3.656,4.148S128.9,23.5,128.9,20.88Z"/><path class="j" d="M43.462,9.846H45.9l6.328,16.781h-2.39L48.22,22.08H41.165l-1.64,4.547H37.134ZM47.47,20.064l-2.742-7.57H44.634l-2.742,7.57H47.47Z"/><path class="j" d="M80.59,26.627V9.738h5.521a6.411,6.411,0,0,1,4.135,1.137,4.1,4.1,0,0,1,1.386,3.364,3.431,3.431,0,0,1-.673,2.094,4.363,4.363,0,0,1-1.833,1.409A3.917,3.917,0,0,1,91.29,19.2a4.179,4.179,0,0,1,.795,2.557,4.517,4.517,0,0,1-1.473,3.573,6.094,6.094,0,0,1-4.164,1.3H80.59Zm2.227-9.685h3.364a3.525,3.525,0,0,0,2.337-.732,2.455,2.455,0,0,0,.876-1.988,2.415,2.415,0,0,0-.812-2.028,3.988,3.988,0,0,0-2.471-.634H82.817v5.382Zm0,1.786v6.078h3.677A3.541,3.541,0,0,0,88.947,24a2.831,2.831,0,0,0,.9-2.221q0-3.051-3.317-3.051H82.817Z"/><path class="j" d="M69.5,25.122H69.4L69.5,26.716v5.062L67.34,30.422V15.232H69.4v1.594H69.5a4.6,4.6,0,0,1,3.914-1.969c2.906,0,5.461,2.6,5.461,6.117s-2.555,6.117-5.461,6.117A4.6,4.6,0,0,1,69.5,25.122Zm7.218-4.148c0-2.578-1.734-4.148-3.656-4.148S69.4,18.349,69.4,20.974s1.734,4.148,3.656,4.148S76.715,23.552,76.715,20.974Z"/></svg>